<svg width="500" height="500" viewBox="0 0 500 500" fill="none" xmlns="http://www.w3.org/2000/svg">
    <path d="M108 309.718L115.524 296.687H130.571L138.094 309.718L130.571 322.749H115.524L108 309.718Z" fill="#086788"/>
    <path d="M133.392 324.765L140.915 311.734H155.962L163.486 324.765L155.962 337.796H140.915L133.392 324.765Z" fill="#F0C808"/>
    <path d="M108 279.624L115.524 266.593H130.571L138.094 279.624L130.571 292.655H115.524L108 279.624Z" fill="#EF476F"/>
    <path d="M133.392 294.671L140.915 281.64H155.962L163.486 294.671L155.962 307.702H140.915L133.392 294.671Z" fill="#DD1C1A"/>
    <path d="M158.784 309.718L166.307 296.687H181.354L188.878 309.718L181.354 322.749H166.307L158.784 309.718Z" fill="#EF476F"/>
    <path d="M184.176 324.765L191.699 311.734H206.746L214.27 324.765L206.746 337.796H191.699L184.176 324.765Z" fill="#086788"/>
    <path d="M184.176 324.765L191.699 311.734H206.746L214.27 324.765L206.746 337.796H191.699L184.176 324.765Z" fill="#F0C808"/>
    <path d="M184.176 295.611L191.699 282.58H206.746L214.27 295.611L206.746 308.642H191.699L184.176 295.611Z" fill="#DD1C1A"/>
    <path d="M158.784 339.812L166.307 326.781H181.354L188.878 339.812L181.354 352.843H166.307L158.784 339.812Z" fill="#EF476F"/>
    <path d="M184.176 354.859L191.699 341.828H206.746L214.27 354.859L206.746 367.89H191.699L184.176 354.859Z" fill="#086788"/>
    <path d="M311.135 309.718L318.658 296.687H333.705L341.229 309.718L333.705 322.749H318.658L311.135 309.718Z" fill="#086788"/>
    <path d="M361.918 279.624L369.442 266.593H384.489L392.013 279.624L384.489 292.655H369.442L361.918 279.624Z" fill="#086788"/>
    <path d="M361.918 279.624L369.442 266.593H384.489L392.013 279.624L384.489 292.655H369.442L361.918 279.624Z" fill="#F0C808"/>
    <path d="M336.527 294.671L344.05 281.64H359.097L366.621 294.671L359.097 307.702H344.05L336.527 294.671Z" fill="#DD1C1A"/>
    <path d="M361.918 249.53L369.442 236.499H384.489L392.013 249.53L384.489 262.561H369.442L361.918 249.53Z" fill="#086788"/>
    <path d="M361.918 249.53L369.442 236.499H384.489L392.013 249.53L384.489 262.561H369.442L361.918 249.53Z" fill="#086788"/>
    <path d="M336.527 264.577L344.05 251.546H359.097L366.621 264.577L359.097 277.608H344.05L336.527 264.577Z" fill="#EF476F"/>
    <path d="M311.135 279.624L318.658 266.593H333.705L341.229 279.624L333.705 292.655H318.658L311.135 279.624Z" fill="#086788"/>
    <path d="M361.918 309.718L369.442 296.687H384.489L392.013 309.718L384.489 322.749H369.442L361.918 309.718Z" fill="#EF476F"/>
    <path d="M336.527 324.765L344.05 311.734H359.097L366.621 324.765L359.097 337.796H344.05L336.527 324.765Z" fill="#DD1C1A"/>
    <path d="M209.567 369.906L217.091 356.875H232.138L239.661 369.906L232.138 382.937H217.091L209.567 369.906Z" fill="#F0C808"/>
    <path d="M209.567 309.718L217.091 296.687H232.138L239.661 309.718L232.138 322.749H217.091L209.567 309.718Z" fill="#086788"/>
    <path d="M234.959 324.765L242.483 311.734H257.53L265.053 324.765L257.53 337.796H242.483L234.959 324.765Z" fill="#DD1C1A"/>
    <path d="M209.567 339.812L217.091 326.781H232.138L239.661 339.812L232.138 352.843H217.091L209.567 339.812Z" fill="#EF476F"/>
    <path d="M234.959 354.859L242.483 341.828H257.53L265.053 354.859L257.53 367.89H242.483L234.959 354.859Z" fill="#086788"/>
    <path d="M108 219.436L115.524 206.405H130.571L138.094 219.436L130.571 232.467H115.524L108 219.436Z" fill="#DD1C1A"/>
    <path d="M133.392 175.235L140.915 162.204H155.962L163.486 175.235L155.962 188.266H140.915L133.392 175.235Z" fill="#DD1C1A"/>
    <path d="M108 249.53L115.524 236.499H130.571L138.094 249.53L130.571 262.561H115.524L108 249.53Z" fill="#F0C808"/>
    <path d="M133.392 264.577L140.915 251.546H155.962L163.486 264.577L155.962 277.608H140.915L133.392 264.577Z" fill="#086788"/>
    <path d="M133.392 264.577L140.915 251.546H155.962L163.486 264.577L155.962 277.608H140.915L133.392 264.577Z" fill="#086788"/>
    <path d="M133.392 234.483L140.915 221.452H155.962L163.486 234.483L155.962 247.514H140.915L133.392 234.483Z" fill="#EF476F"/>
    <path d="M108 189.342L115.524 176.311H130.571L138.094 189.342L130.571 202.373H115.524L108 189.342Z" fill="#F0C808"/>
    <path d="M133.392 204.389L140.915 191.358H155.962L163.486 204.389L155.962 217.42H140.915L133.392 204.389Z" fill="#086788"/>
    <path d="M158.784 279.624L166.307 266.593H181.354L188.878 279.624L181.354 292.655H166.307L158.784 279.624Z" fill="#F0C808"/>
    <path d="M260.351 339.812L267.875 326.781H282.922L290.445 339.812L282.922 352.843H267.875L260.351 339.812Z" fill="#F0C808"/>
    <path d="M285.743 354.859L293.266 341.828H308.313L315.837 354.859L308.313 367.89H293.266L285.743 354.859Z" fill="#086788"/>
    <path d="M285.743 354.859L293.266 341.828H308.313L315.837 354.859L308.313 367.89H293.266L285.743 354.859Z" fill="#086788"/>
    <path d="M285.743 324.765L293.266 311.734H308.313L315.837 324.765L308.313 337.796H293.266L285.743 324.765Z" fill="#EF476F"/>
    <path d="M260.351 369.906L267.875 356.875H282.922L290.445 369.906L282.922 382.937H267.875L260.351 369.906Z" fill="#EF476F"/>
    <path d="M234.959 384.953L242.483 371.922H257.53L265.053 384.953L257.53 397.984H242.483L234.959 384.953Z" fill="#DD1C1A"/>
    <path d="M336.527 234.483L344.05 221.452H359.097L366.621 234.483L359.097 247.514H344.05L336.527 234.483Z" fill="#F0C808"/>
    <path d="M361.918 219.436L369.442 206.405H384.489L392.013 219.436L384.489 232.467H369.442L361.918 219.436Z" fill="#EF476F"/>
    <path d="M336.527 174.295L344.05 161.264H359.097L366.621 174.295L359.097 187.326H344.05L336.527 174.295Z" fill="#EF476F"/>
    <path d="M336.527 204.389L344.05 191.358H359.097L366.621 204.389L359.097 217.42H344.05L336.527 204.389Z" fill="#DD1C1A"/>
    <path d="M361.918 189.342L369.442 176.311H384.489L392.013 189.342L384.489 202.373H369.442L361.918 189.342Z" fill="#F0C808"/>
    <path d="M311.135 339.812L318.658 326.781H333.705L341.229 339.812L333.705 352.843H318.658L311.135 339.812Z" fill="#F0C808"/>
    <path d="M285.743 294.671L293.266 281.64H308.313L315.837 294.671L308.313 307.702H293.266L285.743 294.671Z" fill="#F0C808"/>
    <path d="M260.351 309.718L267.875 296.687H282.922L290.445 309.718L282.922 322.749H267.875L260.351 309.718Z" fill="#086788"/>
    <path d="M158.784 219.436L166.307 206.405H181.354L188.878 219.436L181.354 232.467H166.307L158.784 219.436Z" fill="#19BC9B"/>
    <path d="M184.176 234.483L191.699 221.452H206.746L214.27 234.483L206.746 247.514H191.699L184.176 234.483Z" fill="#19BC9B"/>
    <path d="M184.176 234.483L191.699 221.452H206.746L214.27 234.483L206.746 247.514H191.699L184.176 234.483Z" fill="#19BC9B"/>
    <path d="M184.176 205.329L191.699 192.298H206.746L214.27 205.329L206.746 218.36H191.699L184.176 205.329Z" fill="#19BC9B"/>
    <path d="M158.784 249.53L166.307 236.499H181.354L188.878 249.53L181.354 262.561H166.307L158.784 249.53Z" fill="#19BC9B"/>
    <path d="M184.176 264.577L191.699 251.546H206.746L214.27 264.577L206.746 277.608H191.699L184.176 264.577Z" fill="#19BC9B"/>
    <path d="M311.135 219.436L318.658 206.405H333.705L341.229 219.436L333.705 232.467H318.658L311.135 219.436Z" fill="#19BC9B"/>
    <path d="M311.135 189.342L318.658 176.311H333.705L341.229 189.342L333.705 202.373H318.658L311.135 189.342Z" fill="#19BC9B"/>
    <path d="M209.567 279.624L217.091 266.593H232.138L239.661 279.624L232.138 292.655H217.091L209.567 279.624Z" fill="#19BC9B"/>
    <path d="M209.567 219.436L217.091 206.405H232.138L239.661 219.436L232.138 232.467H217.091L209.567 219.436Z" fill="#19BC9B"/>
    <path d="M234.959 234.483L242.483 221.452H257.53L265.053 234.483L257.53 247.514H242.483L234.959 234.483Z" fill="#19BC9B"/>
    <path d="M209.567 249.53L217.091 236.499H232.138L239.661 249.53L232.138 262.561H217.091L209.567 249.53Z" fill="#19BC9B"/>
    <path d="M234.959 264.577L242.483 251.546H257.53L265.053 264.577L257.53 277.608H242.483L234.959 264.577Z" fill="#19BC9B"/>
    <path d="M158.784 189.342L166.307 176.311H181.354L188.878 189.342L181.354 202.373H166.307L158.784 189.342Z" fill="#19BC9B"/>
    <path d="M260.351 249.53L267.875 236.499H282.922L290.445 249.53L282.922 262.561H267.875L260.351 249.53Z" fill="#19BC9B"/>
    <path d="M285.743 264.577L293.266 251.546H308.313L315.837 264.577L308.313 277.608H293.266L285.743 264.577Z" fill="#19BC9B"/>
    <path d="M285.743 264.577L293.266 251.546H308.313L315.837 264.577L308.313 277.608H293.266L285.743 264.577Z" fill="#19BC9B"/>
    <path d="M285.743 234.483L293.266 221.452H308.313L315.837 234.483L308.313 247.514H293.266L285.743 234.483Z" fill="#19BC9B"/>
    <path d="M260.351 279.624L267.875 266.593H282.922L290.445 279.624L282.922 292.655H267.875L260.351 279.624Z" fill="#19BC9B"/>
    <path d="M234.959 294.671L242.483 281.64H257.53L265.053 294.671L257.53 307.702H242.483L234.959 294.671Z" fill="#19BC9B"/>
    <path d="M311.135 249.53L318.658 236.499H333.705L341.229 249.53L333.705 262.561H318.658L311.135 249.53Z" fill="#19BC9B"/>
    <path d="M285.743 204.389L293.266 191.358H308.313L315.837 204.389L308.313 217.42H293.266L285.743 204.389Z" fill="#19BC9B"/>
    <path d="M260.351 219.436L267.875 206.405H282.922L290.445 219.436L282.922 232.467H267.875L260.351 219.436Z" fill="#19BC9B"/>
    <path d="M341.229 190.282L333.705 203.313H318.658L311.135 190.282L318.658 177.251H333.705L341.229 190.282Z" fill="#19BC9B"/>
    <path d="M315.837 175.235L308.313 188.266H293.266L285.743 175.235L293.266 162.204H308.313L315.837 175.235Z" fill="#19BC9B"/>
    <path d="M315.837 175.235L308.313 188.266H293.266L285.743 175.235L293.266 162.204H308.313L315.837 175.235Z" fill="#19BC9B"/>
    <path d="M315.837 204.389L308.313 217.42H293.266L285.743 204.389L293.266 191.358H308.313L315.837 204.389Z" fill="#19BC9B"/>
    <path d="M341.229 160.188L333.705 173.219H318.658L311.135 160.188L318.658 147.157H333.705L341.229 160.188Z" fill="#19BC9B"/>
    <path d="M315.837 145.141L308.313 158.172H293.266L285.743 145.141L293.266 132.11H308.313L315.837 145.141Z" fill="#19BC9B"/>
    <path d="M188.878 190.282L181.354 203.313H166.307L158.784 190.282L166.307 177.251H181.354L188.878 190.282Z" fill="#19BC9B"/>
    <path d="M188.878 220.376L181.354 233.407H166.307L158.784 220.376L166.307 207.345H181.354L188.878 220.376Z" fill="#19BC9B"/>
    <path d="M290.445 130.094L282.922 143.125H267.875L260.351 130.094L267.875 117.063H282.922L290.445 130.094Z" fill="#19BC9B"/>
    <path d="M290.445 190.282L282.922 203.313H267.875L260.351 190.282L267.875 177.251H282.922L290.445 190.282Z" fill="#19BC9B"/>
    <path d="M265.053 175.235L257.53 188.266H242.483L234.959 175.235L242.483 162.204H257.53L265.053 175.235Z" fill="#19BC9B"/>
    <path d="M265.053 205.329L257.53 218.36H242.483L234.959 205.329L242.483 192.298H257.53L265.053 205.329Z" fill="#19BC9B"/>
    <path d="M290.445 160.188L282.922 173.219H267.875L260.351 160.188L267.875 147.157H282.922L290.445 160.188Z" fill="#19BC9B"/>
    <path d="M265.053 145.141L257.53 158.172H242.483L234.959 145.141L242.483 132.11H257.53L265.053 145.141Z" fill="#19BC9B"/>
    <path d="M341.229 220.376L333.705 233.407H318.658L311.135 220.376L318.658 207.345H333.705L341.229 220.376Z" fill="#19BC9B"/>
    <path d="M239.661 160.188L232.138 173.219H217.091L209.567 160.188L217.091 147.157H232.138L239.661 160.188Z" fill="#19BC9B"/>
    <path d="M214.27 145.141L206.746 158.172H191.699L184.175 145.141L191.699 132.11H206.746L214.27 145.141Z" fill="#19BC9B"/>
    <path d="M214.27 145.141L206.746 158.172H191.699L184.175 145.141L191.699 132.11H206.746L214.27 145.141Z" fill="#19BC9B"/>
    <path d="M214.27 175.235L206.746 188.266H191.699L184.175 175.235L191.699 162.204H206.746L214.27 175.235Z" fill="#19BC9B"/>
    <path d="M239.661 130.094L232.138 143.125H217.091L209.567 130.094L217.091 117.063H232.138L239.661 130.094Z" fill="#19BC9B"/>
    <path d="M265.053 115.047L257.53 128.078H242.483L234.959 115.047L242.483 102.016H257.53L265.053 115.047Z" fill="#19BC9B"/>
    <path d="M188.878 160.188L181.354 173.219H166.307L158.784 160.188L166.307 147.157H181.354L188.878 160.188Z" fill="#19BC9B"/>
    <path d="M214.27 205.329L206.746 218.36H191.699L184.175 205.329L191.699 192.298H206.746L214.27 205.329Z" fill="#19BC9B"/>
    <path d="M239.661 190.282L232.138 203.313H217.091L209.567 190.282L217.091 177.251H232.138L239.661 190.282Z" fill="#19BC9B"/>
</svg>
